<svg width="37" height="37" viewBox="0 0 37 37" fill="none" xmlns="http://www.w3.org/2000/svg">
<circle cx="18.5" cy="18.5" r="18.5" fill="white"/>
<path fill-rule="evenodd" clip-rule="evenodd" d="M12.5627 9.37695C13.9046 8.11115 15.7247 7.40002 17.6225 7.40002C19.5203 7.40002 21.3404 8.11115 22.6823 9.37695C24.0243 10.6428 24.7782 12.3596 24.7782 14.1497C24.7782 17.3824 25.5112 19.3899 26.1867 20.5581C26.5259 21.1447 26.8562 21.5294 27.0856 21.7579C27.2006 21.8723 27.2909 21.9482 27.3453 21.991C27.3725 22.0124 27.3908 22.0255 27.3987 22.031C27.3999 22.0319 27.4009 22.0326 27.4016 22.0331C27.768 22.2705 27.9302 22.7048 27.8011 23.1072C27.6705 23.5139 27.2731 23.792 26.8227 23.792H8.42234C7.97188 23.792 7.5745 23.5139 7.44397 23.1072C7.31481 22.7049 7.47698 22.2705 7.84344 22.0331C7.84416 22.0326 7.84513 22.0319 7.84636 22.031C7.85423 22.0255 7.87248 22.0124 7.8997 21.991C7.95409 21.9482 8.04444 21.8723 8.15942 21.7579C8.38884 21.5294 8.71911 21.1447 9.05828 20.5581C9.73381 19.3899 10.4668 17.3824 10.4668 14.1497C10.4668 12.3596 11.2207 10.6428 12.5627 9.37695ZM7.85377 22.0265C7.85385 22.0264 7.85393 22.0264 7.85401 22.0263C7.85401 22.0263 7.854 22.0263 7.854 22.0263L7.85377 22.0265ZM10.6195 21.8636H24.6255C24.5478 21.7433 24.4697 21.6161 24.3919 21.4816C23.5341 19.9981 22.7337 17.6666 22.7337 14.1497C22.7337 12.871 22.1952 11.6447 21.2367 10.7406C20.2781 9.83644 18.9781 9.3285 17.6225 9.3285C16.2669 9.3285 14.9669 9.83644 14.0083 10.7406C13.0498 11.6447 12.5113 12.871 12.5113 14.1497C12.5113 17.6666 11.711 19.9981 10.8531 21.4816C10.7753 21.6161 10.6972 21.7433 10.6195 21.8636Z" fill="#878787"/>
<path fill-rule="evenodd" clip-rule="evenodd" d="M15.3408 25.8508C15.8291 25.5836 16.4547 25.7404 16.7379 26.201C16.8278 26.3471 16.9568 26.4684 17.112 26.5528C17.2671 26.6371 17.4431 26.6814 17.6222 26.6814C17.8013 26.6814 17.9772 26.6371 18.1324 26.5528C18.2876 26.4684 18.4166 26.3471 18.5064 26.201C18.7897 25.7404 19.4152 25.5836 19.9036 25.8508C20.3919 26.118 20.5582 26.708 20.2749 27.1687C20.0053 27.607 19.6184 27.9709 19.1528 28.2238C18.6873 28.4768 18.1594 28.6099 17.6222 28.6099C17.0849 28.6099 16.5571 28.4768 16.0915 28.2238C15.626 27.9709 15.239 27.607 14.9695 27.1687C14.6862 26.708 14.8524 26.118 15.3408 25.8508Z" fill="#878787"/>
<circle cx="23.125" cy="9.55838" r="4.00833" fill="#E23744"/>
</svg>
